<svg xmlns="http://www.w3.org/2000/svg" xml:space="preserve" viewBox="0 0 72.416 36">
  <path fill="#f60" d="M1.268 0A1.268 1.268 0 0 0 .086 1.728l5.647 14.547a4.77 4.77 0 0 1 0 3.453L.086 34.274A1.268 1.268 0 0 0 1.268 36h3.296a4.069 4.069 0 0 0 3.068-1.396L14.252 27h-1.591a3.175 3.175 0 0 1-3.175-3.175v-11.65A3.175 3.175 0 0 1 12.66 9h1.591l-6.62-7.603A4.069 4.069 0 0 0 4.564 0H1.268z"/>
  <path fill="#ff5400" d="M30.524 12.159q.373 0 .66.254.305.254.356.627l1.66 10.803h-3.184l-.847-8.094q-.034-.322-.05-.627v-.61h-.475l-.152.576q-.085.322-.22.627l-3.2 8.127H21.77l4.707-10.922q.136-.372.423-.558.305-.204.695-.204zm.711 6.587-.27 2.354h-6.097l.288-2.354zm-12.784-6.824q.948.017 1.998.135 1.067.119 2.015.424l-.27 2.049q-.526-.017-1.186-.017-.66-.017-1.355-.017-.694-.017-1.388-.017-.356 0-.627.034-.254.017-.44.101-.17.068-.27.22-.102.153-.153.407-.017.22.034.39t.237.304q.203.136.576.322l2.032.914q.948.424 1.422.915.491.49.626 1.134.153.644.051 1.507-.17 1.321-.677 2.05-.491.727-1.473 1.015-.982.288-2.608.288-.694 0-1.863-.119-1.168-.101-2.472-.423l.305-2.218q.982.017 1.761.05.796.018 1.338.035h.779q.626 0 .982-.068.372-.068.542-.237.186-.186.237-.491.05-.271 0-.424t-.22-.27-.475-.255l-2.184-.999q-.931-.457-1.422-.982-.474-.525-.61-1.151-.135-.644-.05-1.389.118-.965.456-1.591.356-.627.932-.965.592-.356 1.439-.508.864-.153 1.981-.153z"/>
  <path d="m72.416 12.159-5.046 8.094h-3.031l-2.777-8.094h3.183l1.084 4.013q.119.474.136.864.033.39.033.762h.22q.068-.339.204-.78.152-.44.355-.829l2.252-4.03zm-4.741 6.248-.745 5.436h-3.2l.761-5.436zm-9.483-6.248-1.219 8.382q-.034.39.102.576.152.186.575.186h3.946l-.051 2.404q-1.151.136-2.574.153-1.405.034-2.794.034-.812 0-1.405-.322-.576-.339-.864-.931-.288-.61-.169-1.406l1.27-9.076zm-10.515-.05q1 0 2.015.016 1.016 0 1.964.05.949.035 1.728.136l-.356 2.252h-4.2q-.456 0-.677.17-.203.17-.27.61l-.746 5.333q-.05.373.119.576.17.186.593.186h4.165l-.05 2.286q-.797.102-1.745.119-.931.034-1.913.034-.965.017-1.846.017-1.405 0-2.066-.83-.643-.83-.474-2.15l.88-6.35q.17-1.135.898-1.795.745-.66 1.981-.66zm-2.861 4.639h7.264l-.271 2.15h-7.332zm-6.57-4.64q1.439 0 2.929.034 1.49.017 2.642.186l-.356 2.236h-3.996q-.508 0-.728.169-.22.17-.288.61l-1.185 8.5H34.08l1.287-9.263q.17-1.168.948-1.811.78-.66 1.93-.66zm-2.896 4.86h7.129l-.271 2.15h-7.18z"/>
</svg>